<svg width="32" height="32" viewBox="0 0 32 32" fill="none" xmlns="http://www.w3.org/2000/svg">
<g id="edit">
<path id="Vector" d="M14.6666 5.33333H5.33329C4.62605 5.33333 3.94777 5.61428 3.44767 6.11438C2.94758 6.61447 2.66663 7.29275 2.66663 7.99999V26.6667C2.66663 27.3739 2.94758 28.0522 3.44767 28.5523C3.94777 29.0524 4.62605 29.3333 5.33329 29.3333H24C24.7072 29.3333 25.3855 29.0524 25.8856 28.5523C26.3857 28.0522 26.6666 27.3739 26.6666 26.6667V17.3333" stroke="black" stroke-width="2" stroke-linecap="round" stroke-linejoin="round"/>
<path id="Vector_2" d="M24.6666 3.33334C25.1971 2.80291 25.9165 2.50491 26.6666 2.50491C27.4168 2.50491 28.1362 2.80291 28.6666 3.33334C29.1971 3.86377 29.4951 4.58319 29.4951 5.33334C29.4951 6.08349 29.1971 6.80291 28.6666 7.33334L16 20L10.6666 21.3333L12 16L24.6666 3.33334Z" stroke="black" stroke-width="2" stroke-linecap="round" stroke-linejoin="round"/>
</g>
</svg>
